# xmcd
#
# Track frame offsets:
# 151
# 17543
# 35109
# 53184
# 69870
# 87158
# 104360
# 122185
# 139349
# 156508
# 173495
# 190299
#
# Disc length: 2769 seconds
#
#
# Revision: 0
# Processed by: cddbd v1.5.2PL0 Copyright (c) Steve Scherf et al.
# Submitted via: FreeRIP 2.90 
#
DISCID=a20acf0c
DTITLE=Teddy Meyers - Square Dance Singing Calls
DYEAR=1900
DGENRE=Mainstream
TTITLE0=Marty Robins Medley
TTITLE1=City Of New Orleans
TTITLE2=I Have To Say I Love You In A Song
TTITLE3=Margaritaville
TTITLE4=Rhythm Of The Rain
TTITLE5=Key Largo
TTITLE6=The Devil Went Down To Georgia
TTITLE7=Pirates And Poets
TTITLE8=Show Me The Way To Amarillo
TTITLE9=Someday Soon
TTITLE10=Dream Lover
TTITLE11=Wild About Honey
EXTD=
EXTT0=
EXTT1=
EXTT2=
EXTT3=
EXTT4=
EXTT5=
EXTT6=
EXTT7=
EXTT8=
EXTT9=
EXTT10=
EXTT11=
PLAYORDER=
